<?xml version="1.0" standalone="no"?>
<!DOCTYPE svg PUBLIC "-//W3C//DTD SVG 20010904//EN"
 "http://www.w3.org/TR/2001/REC-SVG-20010904/DTD/svg10.dtd">
<svg version="1.0" xmlns="http://www.w3.org/2000/svg"
 width="768.000000pt" height="768.000000pt" viewBox="0 0 768.000000 768.000000"
 preserveAspectRatio="xMidYMid meet">
<metadata>
Created by potrace 1.14, written by Peter Selinger 2001-2017
</metadata>
<g transform="translate(0.000000,768.000000) scale(0.100000,-0.100000)"
fill="#000000" stroke="none">
<path d="M3595 7615 c-54 -30 -103 -55 -107 -55 -4 0 -8 -4 -8 -9 0 -5 -8 -11
-17 -14 -10 -3 -40 -19 -68 -35 -27 -16 -68 -39 -90 -52 -50 -27 -140 -79
-180 -102 -16 -10 -55 -31 -85 -48 -30 -17 -68 -39 -85 -48 -16 -10 -55 -32
-85 -49 -30 -16 -74 -42 -97 -56 -24 -15 -44 -27 -46 -27 -2 0 -60 -32 -128
-72 -68 -39 -142 -81 -164 -93 -125 -70 -493 -280 -526 -301 -22 -13 -39 -21
-39 -17 0 5 -4 4 -8 -2 -4 -5 -18 -16 -31 -23 -13 -8 -40 -23 -60 -34 -48 -27
-176 -100 -226 -128 -22 -13 -69 -40 -105 -60 -36 -20 -87 -50 -115 -65 -27
-16 -66 -38 -86 -49 -21 -12 -66 -37 -100 -57 -35 -20 -86 -49 -114 -64 -73
-41 -101 -57 -198 -114 -49 -28 -90 -51 -92 -51 -2 0 -38 -20 -79 -45 -42 -25
-80 -45 -85 -45 -5 0 -14 -7 -21 -15 -7 -8 -16 -12 -21 -9 -5 3 -9 2 -9 -3 0
-4 -18 -19 -40 -32 -29 -18 -41 -34 -45 -55 -3 -17 -4 -902 -3 -1967 3 -1877
4 -1938 22 -1958 10 -11 64 -46 120 -78 55 -31 103 -61 104 -65 2 -4 8 -8 14
-8 9 0 368 -199 378 -210 5 -5 65 -38 125 -69 17 -9 32 -19 33 -23 2 -5 7 -8
12 -8 5 0 67 -34 139 -75 72 -41 134 -75 137 -75 3 0 25 -13 49 -30 24 -16 46
-30 49 -30 5 0 169 -92 196 -110 8 -6 26 -16 40 -22 14 -7 52 -29 85 -48 33
-20 85 -50 115 -67 93 -51 152 -85 228 -130 41 -24 75 -43 77 -43 2 0 38 -20
79 -45 42 -25 79 -45 81 -45 4 0 68 -37 135 -78 14 -9 26 -15 28 -13 1 1 14
-7 29 -19 14 -11 32 -20 39 -20 8 0 14 -4 14 -10 0 -5 6 -10 14 -10 7 0 25 -9
40 -21 14 -11 26 -17 26 -12 0 4 4 3 8 -3 4 -5 39 -28 77 -49 39 -21 84 -46
100 -56 17 -9 68 -38 115 -64 47 -26 92 -54 101 -61 9 -8 18 -12 21 -9 3 3 11
-1 18 -10 7 -8 16 -15 20 -15 5 0 42 -20 84 -44 41 -25 101 -59 133 -76 32
-17 65 -35 73 -40 8 -5 39 -22 68 -39 l52 -31 1 33 c1 66 -1 4552 -3 6065 -1
864 -5 1572 -8 1572 -3 0 -50 -25 -105 -55z"/>
<path d="M3977 6537 c1 -622 3 -1179 3 -1237 0 -58 0 -400 -1 -760 0 -360 0
-720 0 -800 1 -80 1 -640 1 -1245 0 -605 0 -1411 1 -1792 l1 -692 25 10 c14 5
55 27 91 48 37 21 87 49 112 63 25 14 61 35 80 47 19 11 42 24 50 28 8 3 72
39 142 80 69 40 131 73 137 73 6 0 11 4 11 9 0 5 12 14 28 20 15 6 45 22 67
35 22 14 56 33 75 44 43 24 81 45 191 109 48 27 93 53 100 57 8 3 41 22 74 42
33 19 74 42 90 50 17 9 47 25 67 37 117 69 354 202 365 205 7 2 13 8 13 13 0
5 5 9 10 9 6 0 52 24 103 53 50 30 112 65 137 79 213 119 588 333 599 341 7 6
20 12 29 13 8 2 18 7 21 12 3 5 21 15 39 23 17 8 32 17 32 21 0 5 4 8 9 8 5 0
64 32 132 70 67 39 126 70 129 70 4 0 13 7 20 15 7 8 16 12 21 9 5 -3 9 0 9 5
0 6 4 11 10 11 5 0 58 29 118 64 86 51 111 71 125 100 16 34 17 156 17 1957 0
1742 -1 1924 -16 1955 -16 34 -65 69 -174 127 -30 16 -62 36 -71 43 -8 8 -19
14 -23 14 -4 0 -51 25 -104 57 -53 31 -113 65 -132 75 -19 10 -42 23 -50 28
-42 27 -193 110 -201 110 -5 0 -9 4 -9 8 0 4 -12 13 -27 19 -16 7 -50 25 -78
41 -59 35 -114 66 -175 100 -25 14 -78 45 -118 69 -41 24 -76 43 -78 43 -2 0
-21 11 -42 24 -20 13 -62 37 -92 53 -30 17 -84 47 -120 68 -36 20 -94 53 -130
72 -36 20 -72 42 -81 49 -8 8 -18 14 -21 14 -4 0 -84 44 -180 99 -95 54 -269
153 -386 220 -117 66 -217 121 -223 121 -5 0 -9 5 -9 10 0 6 -6 10 -14 10 -7
0 -19 7 -26 15 -7 9 -15 13 -18 11 -3 -3 -17 3 -32 14 -16 11 -33 20 -39 20
-6 0 -11 5 -11 10 0 6 -4 10 -10 10 -5 0 -80 41 -166 90 -86 50 -157 90 -159
90 -2 0 -36 19 -77 43 -40 24 -80 46 -88 50 -8 4 -28 16 -45 26 -65 42 -60
135 -58 -1112z"/>
</g>
</svg>
