<svg xmlns="http://www.w3.org/2000/svg" width="147.033" height="136.924" viewBox="0 0 147.033 136.924">
  <g id="Group_8" data-name="Group 8" transform="translate(-256 -976)">
    <path id="Path_119" data-name="Path 119" d="M4.345,95.161h127.19V80.884H4.345V95.161ZM92.4,116.581h7.052v6.311H36.425v-6.311h7.05a2.115,2.115,0,0,0,2.119-2.116V99.394h44.69v15.071A2.116,2.116,0,0,0,92.4,116.581ZM4.345,76.65h127.19V4.815H4.345V76.648ZM2.224.585A2.116,2.116,0,0,0,.105,2.7V97.278A2.117,2.117,0,0,0,2.224,99.4H41.356V112.35H34.3a2.12,2.12,0,0,0-2.119,2.118V125.01a2.12,2.12,0,0,0,2.119,2.118h67.273a2.121,2.121,0,0,0,2.119-2.118V114.466a2.121,2.121,0,0,0-2.119-2.118H94.523V99.394h39.132a2.119,2.119,0,0,0,2.121-2.118V2.7A2.118,2.118,0,0,0,133.657.587H2.224Z" transform="translate(255.895 975.415)" fill="#65e2d9" fill-rule="evenodd"/>
    <path id="Path_120" data-name="Path 120" d="M37.346,47.92a2.118,2.118,0,1,0,2.119,2.118,2.119,2.119,0,0,0-2.119-2.118" transform="translate(283.587 1012.737)" fill="#65e2d9" fill-rule="evenodd"/>
    <rect id="Rectangle_3" data-name="Rectangle 3" width="45.822" height="94.422" rx="2.462" transform="translate(356.32 1017.682)" fill="#181f2a" stroke="#65e2d9" stroke-width="1.641"/>
    <path id="Path_121" data-name="Path 121" d="M.729,6.646H46.877V8.434H.729Zm0,67.727H46.877v1.788H.729Z" transform="translate(355.427 1021.454)" fill="#fff" stroke="#65e2d9" stroke-width="1.458" fill-rule="evenodd"/>
    <ellipse id="Ellipse_21" data-name="Ellipse 21" cx="2.119" cy="2.116" rx="2.119" ry="2.116" transform="translate(376.051 1100.872)" fill="none" stroke="#65e2d9" stroke-width="1.01"/>
    <path id="Path_122" data-name="Path 122" d="M59.029,15.969h-.352l-9.363,3.7-10.6-3.7-9.892,3.352c-.354.175-.706.352-.706.882v26.63a.834.834,0,0,0,.884.883h.352l9.363-3.7,10.6,3.7,9.892-3.35a1.172,1.172,0,0,0,.706-.882V16.851A.833.833,0,0,0,59.029,15.969ZM49.314,42.422l-10.6-3.572V18.614l10.6,3.572V42.424Z" transform="translate(277.98 987.545)" fill="#65e2d9" fill-rule="evenodd"/>
    <path id="Path_123" data-name="Path 123" d="M32.354,15.969a3.974,3.974,0,0,0-4.239,3.7c0,2.754,4.239,6.88,4.239,6.88s4.24-4.128,4.24-6.878a3.974,3.974,0,0,0-4.239-3.7Zm0,5.29a1.477,1.477,0,1,1,1.631-1.468A1.54,1.54,0,0,1,32.354,21.259Z" transform="translate(277.98 987.545)" fill="#fff" fill-rule="evenodd"/>
  </g>
</svg>
