<?xml version="1.0" encoding="UTF-8"?>
<svg xmlns="http://www.w3.org/2000/svg" xmlns:xlink="http://www.w3.org/1999/xlink" width="32pt" height="36pt" viewBox="0 0 32 36" version="1.1">
<g id="surface1">
<path style=" stroke:none;fill-rule:nonzero;fill:rgb(72.54902%,27.843137%,56.078431%);fill-opacity:1;" d="M 15.363281 15.792969 C 15.371094 15.933594 15.378906 16.070312 15.378906 16.210938 C 15.378906 22.632812 15.378906 29.054688 15.378906 35.476562 L 15.378906 35.992188 C 14.976562 35.769531 14.640625 35.585938 14.304688 35.398438 C 9.652344 32.746094 4.996094 30.101562 0.34375 27.457031 C 0.0898438 27.316406 -0.00390625 27.167969 -0.00390625 26.878906 C 0.0078125 20.957031 0.0078125 15.03125 -0.00390625 9.109375 C -0.00390625 8.867188 0.0429688 8.710938 0.273438 8.578125 C 5.199219 5.785156 10.117188 2.988281 15.03125 0.1875 C 15.117188 0.140625 15.199219 0.101562 15.347656 0.0273438 L 15.347656 4.527344 C 15.25 4.578125 15.148438 4.625 15.050781 4.679688 C 12.488281 6.230469 9.933594 7.789062 7.363281 9.328125 C 6.953125 9.574219 6.789062 9.875 6.792969 10.34375 C 6.804688 14.292969 6.800781 18.246094 6.800781 22.195312 L 6.800781 22.683594 C 4.636719 22.597656 3.152344 24.429688 3.53125 26.03125 C 3.503906 26.078125 3.449219 26.128906 3.453125 26.171875 C 3.550781 27.136719 4.050781 27.917969 5.21875 27.949219 C 6.214844 27.976562 7.011719 27.503906 7.734375 26.886719 C 8.113281 26.5625 8.507812 26.222656 8.59375 25.695312 C 8.613281 25.566406 8.527344 25.421875 8.488281 25.285156 C 8.527344 25.085938 8.554688 24.882812 8.566406 24.675781 C 8.578125 23.019531 8.582031 21.363281 8.589844 19.703125 C 9.375 19.261719 10.164062 18.832031 10.941406 18.382812 C 12.421875 17.523438 13.890625 16.65625 15.363281 15.792969 Z M 15.363281 15.792969 "/>
<path style=" stroke:none;fill-rule:nonzero;fill:rgb(91.764706%,45.490196%,23.137255%);fill-opacity:1;" d="M 16.621094 27.695312 C 16.625 24.476562 16.628906 21.257812 16.632812 18.039062 C 16.933594 18.128906 17.277344 18.160156 17.519531 18.328125 C 17.925781 18.613281 18.277344 18.980469 18.628906 19.332031 C 18.964844 19.691406 19.441406 19.886719 19.9375 19.875 C 20.632812 19.867188 21.335938 19.828125 22.027344 19.886719 C 22.515625 19.929688 23.066406 20 23.453125 20.257812 C 24.65625 21.0625 25.695312 22.074219 26.53125 23.25 L 26.53125 24.277344 C 26.503906 24.308594 26.460938 24.339844 26.457031 24.375 C 26.304688 25.320312 27.359375 26.269531 28.308594 26.039062 C 29.203125 25.824219 29.785156 24.988281 29.535156 24.265625 C 29.535156 24.238281 29.535156 24.210938 29.535156 24.183594 C 29.695312 22.9375 29.089844 22.269531 27.804688 22.25 C 27.703125 22.238281 27.609375 22.1875 27.542969 22.109375 C 26.671875 21.175781 25.800781 20.234375 24.929688 19.292969 C 25.335938 19.089844 25.742188 18.878906 26.152344 18.683594 C 26.414062 18.558594 26.605469 18.628906 26.789062 18.878906 C 27.332031 19.625 28.402344 19.730469 29.128906 19.078125 C 29.507812 18.734375 29.683594 18.078125 29.507812 17.761719 C 29.738281 16.59375 29.332031 15.957031 28.199219 15.667969 C 28.078125 15.636719 27.914062 15.476562 27.902344 15.359375 C 27.847656 14.867188 27.839844 14.371094 27.816406 13.875 C 27.988281 13.789062 28.152344 13.664062 28.332031 13.625 C 29.148438 13.457031 29.78125 12.542969 29.535156 11.84375 C 29.542969 11.773438 29.546875 11.703125 29.558594 11.636719 C 29.703125 10.742188 29.15625 9.964844 28.277344 9.816406 C 27.863281 9.75 27.441406 9.851562 27.109375 10.101562 C 26.777344 10.347656 26.558594 10.722656 26.507812 11.132812 C 26.464844 11.394531 26.535156 11.675781 26.550781 11.949219 C 26.34375 12.398438 26.582031 12.726562 26.851562 13.046875 C 26.808594 13.347656 26.785156 13.652344 26.777344 13.953125 C 26.792969 14.628906 26.863281 15.304688 26.855469 15.980469 C 26.867188 16.339844 26.65625 16.671875 26.324219 16.8125 C 25.789062 17.042969 25.269531 17.300781 24.726562 17.515625 C 24.230469 17.71875 23.730469 17.988281 23.210938 18.039062 C 22.21875 18.136719 21.214844 18.085938 20.210938 18.121094 C 19.753906 18.136719 19.386719 17.992188 19.117188 17.636719 C 18.488281 16.808594 17.664062 16.324219 16.621094 16.214844 L 16.632812 11.050781 C 17.636719 11.070312 18.613281 11.367188 19.449219 11.910156 C 19.90625 12.207031 20.320312 12.566406 20.753906 12.898438 L 20.652344 13.917969 C 20.652344 14.015625 20.648438 14.113281 20.648438 14.210938 C 20.648438 15.382812 21.769531 16.125 22.847656 15.660156 C 23.621094 15.328125 23.796875 14.679688 23.746094 13.921875 C 23.773438 12.5625 23.335938 12.074219 22.019531 11.96875 C 21.914062 11.957031 21.816406 11.910156 21.742188 11.835938 C 21.535156 11.613281 21.34375 11.371094 21.152344 11.140625 C 21.519531 10.875 21.882812 10.601562 22.257812 10.34375 C 22.371094 10.261719 22.503906 10.203125 22.640625 10.179688 C 22.894531 10.140625 23.167969 10.191406 23.410156 10.121094 C 24.074219 9.933594 24.652344 9.109375 24.421875 8.382812 C 24.4375 8.175781 24.488281 7.964844 24.464844 7.765625 C 24.355469 6.820312 23.570312 6.238281 22.636719 6.390625 C 21.757812 6.53125 21.230469 7.351562 21.40625 8.28125 C 21.449219 8.507812 21.515625 8.792969 21.417969 8.96875 C 21.121094 9.484375 19.613281 9.9375 19.015625 9.78125 C 18.222656 9.574219 17.417969 9.40625 16.625 9.222656 L 16.625 0.0078125 C 16.855469 0.132812 17.023438 0.21875 17.1875 0.3125 C 21.996094 3.050781 26.804688 5.785156 31.617188 8.519531 C 31.917969 8.691406 32 8.878906 32 9.203125 C 31.992188 15.070312 31.992188 20.933594 32 26.800781 C 32 27.128906 31.910156 27.3125 31.609375 27.480469 C 26.773438 30.21875 21.941406 32.96875 17.109375 35.722656 C 16.96875 35.804688 16.824219 35.878906 16.640625 35.976562 L 16.640625 29.535156 C 17.027344 29.421875 17.410156 29.304688 17.796875 29.195312 C 18.515625 28.984375 19.207031 28.9375 19.863281 29.425781 C 20.269531 29.734375 20.785156 29.863281 21.289062 29.78125 C 21.644531 29.722656 21.996094 29.632812 22.339844 29.515625 C 22.582031 29.433594 22.773438 29.417969 22.992188 29.570312 C 23.386719 29.839844 23.832031 29.855469 24.277344 29.734375 C 25.050781 29.523438 25.367188 28.984375 25.347656 27.988281 C 25.339844 27.929688 25.339844 27.875 25.347656 27.820312 C 25.503906 26.84375 24.867188 26.066406 23.941406 25.96875 C 23.511719 25.9375 23.085938 26.082031 22.761719 26.367188 C 22.441406 26.65625 22.253906 27.0625 22.246094 27.492188 C 22.242188 27.589844 22.113281 27.722656 22.011719 27.765625 C 21.285156 28.101562 20.585938 28.101562 19.976562 27.511719 C 20.46875 26.6875 20.957031 25.859375 21.453125 25.035156 C 21.492188 24.964844 21.554688 24.914062 21.628906 24.878906 C 22.789062 24.464844 23.019531 24.144531 22.996094 22.992188 C 22.996094 22.882812 22.996094 22.769531 23 22.65625 C 23.003906 22 22.707031 21.503906 22.121094 21.210938 C 21.539062 20.921875 20.949219 21.007812 20.4375 21.414062 C 19.929688 21.820312 19.851562 22.390625 19.902344 22.996094 C 19.867188 23.476562 19.875 23.945312 20.261719 24.308594 C 19.824219 25.285156 19.171875 26.148438 18.351562 26.839844 C 17.851562 27.253906 17.308594 27.621094 16.621094 27.695312 Z M 16.621094 27.695312 "/>
<path style=" stroke:none;fill-rule:nonzero;fill:rgb(99.607843%,98.823529%,85.490196%);fill-opacity:1;" d="M 8.597656 19.707031 C 8.589844 21.367188 8.585938 23.023438 8.574219 24.679688 C 8.5625 24.886719 8.535156 25.089844 8.496094 25.289062 C 7.964844 26.171875 7.175781 26.746094 6.230469 27.085938 C 5 27.527344 4.0625 27.136719 3.535156 26.035156 C 3.15625 24.433594 4.644531 22.605469 6.804688 22.6875 L 6.804688 22.199219 C 6.804688 18.25 6.808594 14.296875 6.796875 10.347656 C 6.796875 9.878906 6.960938 9.578125 7.367188 9.332031 C 9.9375 7.792969 12.496094 6.234375 15.058594 4.683594 C 15.152344 4.628906 15.253906 4.585938 15.355469 4.535156 C 15.355469 6.457031 15.359375 8.378906 15.363281 10.304688 C 15.242188 10.367188 15.109375 10.421875 14.996094 10.492188 C 13.046875 11.640625 11.105469 12.804688 9.136719 13.925781 C 8.683594 14.183594 8.464844 14.457031 8.597656 14.960938 L 8.597656 17.21875 C 9.414062 16.738281 10.167969 16.296875 10.921875 15.855469 C 12.398438 14.996094 13.875 14.136719 15.351562 13.277344 C 15.355469 13.867188 15.359375 14.457031 15.363281 15.050781 C 15.242188 15.113281 15.109375 15.167969 14.996094 15.238281 C 13.046875 16.386719 11.105469 17.550781 9.140625 18.667969 C 8.6875 18.921875 8.46875 19.199219 8.597656 19.707031 Z M 8.597656 19.707031 "/>
<path style=" stroke:none;fill-rule:nonzero;fill:rgb(99.215686%,98.039216%,84.313725%);fill-opacity:1;" d="M 26.535156 24.28125 L 26.535156 23.25 C 26.824219 22.972656 26.773438 22.703125 26.511719 22.4375 C 25.652344 21.566406 24.800781 20.695312 23.9375 19.832031 C 23.425781 19.324219 22.769531 19.152344 22.066406 19.128906 C 21.746094 19.101562 21.425781 19.101562 21.105469 19.128906 C 19.808594 19.273438 18.695312 19 17.914062 17.867188 C 17.808594 17.71875 17.664062 17.601562 17.496094 17.535156 C 17.210938 17.4375 16.917969 17.355469 16.621094 17.292969 L 16.621094 16.210938 C 17.664062 16.320312 18.488281 16.808594 19.117188 17.636719 C 19.390625 17.992188 19.757812 18.132812 20.214844 18.121094 C 21.214844 18.085938 22.21875 18.136719 23.210938 18.035156 C 23.730469 17.984375 24.234375 17.714844 24.730469 17.515625 C 25.265625 17.296875 25.789062 17.042969 26.324219 16.808594 C 26.65625 16.667969 26.871094 16.335938 26.855469 15.976562 C 26.863281 15.300781 26.792969 14.628906 26.777344 13.953125 C 26.785156 13.648438 26.8125 13.34375 26.851562 13.042969 C 27.097656 12.585938 26.832031 12.261719 26.554688 11.945312 C 26.535156 11.671875 26.46875 11.394531 26.507812 11.128906 C 26.5625 10.71875 26.78125 10.351562 27.113281 10.105469 C 27.445312 9.855469 27.867188 9.753906 28.277344 9.820312 C 29.15625 9.972656 29.703125 10.75 29.558594 11.640625 C 29.546875 11.710938 29.542969 11.78125 29.535156 11.847656 C 29.292969 12.335938 28.96875 12.777344 28.398438 12.835938 C 27.949219 12.882812 27.859375 13.105469 27.855469 13.464844 C 27.855469 13.601562 27.828125 13.738281 27.816406 13.875 C 27.839844 14.375 27.84375 14.871094 27.902344 15.363281 C 27.914062 15.476562 28.078125 15.640625 28.199219 15.671875 C 29.332031 15.960938 29.738281 16.59375 29.507812 17.761719 C 28.832031 18.992188 27.53125 19.117188 26.714844 18.011719 C 26.53125 17.761719 26.34375 17.839844 26.175781 17.929688 C 25.585938 18.226562 25.007812 18.554688 24.390625 18.890625 L 24.929688 19.292969 C 25.800781 20.234375 26.675781 21.175781 27.550781 22.113281 C 27.617188 22.191406 27.710938 22.242188 27.8125 22.257812 C 29.097656 22.269531 29.703125 22.941406 29.542969 24.1875 C 29.542969 24.214844 29.542969 24.242188 29.542969 24.269531 C 29.285156 24.78125 28.941406 25.191406 28.332031 25.289062 C 27.53125 25.417969 26.992188 25.109375 26.535156 24.28125 Z M 27.519531 11.34375 C 27.515625 11.625 27.746094 11.855469 28.027344 11.859375 C 28.3125 11.863281 28.542969 11.636719 28.546875 11.355469 C 28.535156 11.046875 28.359375 10.867188 28.058594 10.835938 C 27.777344 10.804688 27.527344 11.054688 27.519531 11.34375 Z M 27.964844 17.550781 C 28.257812 17.546875 28.558594 17.613281 28.546875 17.222656 C 28.535156 16.914062 28.367188 16.730469 28.054688 16.707031 C 27.914062 16.699219 27.777344 16.75 27.675781 16.847656 C 27.574219 16.945312 27.515625 17.082031 27.519531 17.222656 C 27.523438 17.574219 27.765625 17.566406 27.964844 17.550781 Z M 28.03125 24.117188 C 28.296875 24.144531 28.566406 24.15625 28.546875 23.777344 C 28.527344 23.46875 28.347656 23.285156 28.035156 23.28125 C 27.726562 23.277344 27.546875 23.46875 27.523438 23.773438 C 27.5 24.152344 27.765625 24.144531 28.035156 24.117188 Z M 28.03125 24.117188 "/>
<path style=" stroke:none;fill-rule:nonzero;fill:rgb(99.215686%,98.039216%,84.313725%);fill-opacity:1;" d="M 16.621094 27.695312 C 17.304688 27.621094 17.847656 27.253906 18.347656 26.839844 C 19.167969 26.148438 19.824219 25.285156 20.257812 24.308594 C 20.304688 24.117188 20.425781 23.898438 20.371094 23.746094 C 20.273438 23.476562 20.0625 23.246094 19.898438 22.996094 C 19.84375 22.390625 19.921875 21.824219 20.433594 21.414062 C 20.949219 21.003906 21.527344 20.914062 22.121094 21.210938 C 22.710938 21.507812 23 21.996094 22.996094 22.65625 C 22.996094 22.765625 22.996094 22.878906 22.992188 22.992188 C 22.746094 23.507812 22.429688 23.964844 21.824219 24.074219 C 21.542969 24.121094 21.457031 24.289062 21.328125 24.488281 C 20.777344 25.351562 20.203125 26.199219 19.632812 27.046875 C 19.574219 27.132812 19.503906 27.214844 19.421875 27.3125 L 19.972656 27.503906 C 20.585938 28.085938 21.28125 28.085938 22.011719 27.761719 C 22.113281 27.714844 22.238281 27.582031 22.242188 27.484375 C 22.253906 27.058594 22.441406 26.652344 22.757812 26.363281 C 23.078125 26.078125 23.503906 25.933594 23.933594 25.964844 C 24.855469 26.0625 25.496094 26.835938 25.335938 27.816406 C 25.332031 27.871094 25.332031 27.925781 25.335938 27.980469 C 25.265625 28.097656 25.195312 28.214844 25.121094 28.328125 C 24.691406 29.003906 23.804688 29.277344 23.113281 28.867188 C 22.765625 28.660156 22.488281 28.683594 22.148438 28.808594 C 21.265625 29.136719 20.4375 29.117188 19.613281 28.542969 C 19.300781 28.328125 18.789062 28.289062 18.386719 28.335938 C 17.796875 28.40625 17.210938 28.625 16.621094 28.785156 C 16.621094 28.417969 16.621094 28.058594 16.621094 27.695312 Z M 21.964844 22.613281 C 21.953125 22.308594 21.679688 22.046875 21.40625 22.082031 C 21.109375 22.121094 20.921875 22.300781 20.914062 22.605469 C 20.925781 22.886719 21.15625 23.105469 21.4375 23.109375 C 21.71875 23.109375 21.949219 22.890625 21.964844 22.613281 Z M 23.796875 27.859375 C 24.082031 27.925781 24.335938 27.878906 24.320312 27.503906 C 24.308594 27.199219 24.117188 27.003906 23.8125 27.003906 C 23.507812 27.003906 23.308594 27.1875 23.289062 27.492188 C 23.273438 27.820312 23.476562 27.925781 23.800781 27.855469 Z M 23.796875 27.859375 "/>
<path style=" stroke:none;fill-rule:nonzero;fill:rgb(99.215686%,98.039216%,84.313725%);fill-opacity:1;" d="M 16.621094 9.21875 C 17.417969 9.402344 18.21875 9.570312 19.011719 9.777344 C 19.609375 9.933594 21.117188 9.480469 21.414062 8.964844 C 21.511719 8.789062 21.445312 8.5 21.402344 8.273438 C 21.226562 7.347656 21.753906 6.527344 22.632812 6.382812 C 23.566406 6.234375 24.351562 6.816406 24.460938 7.761719 C 24.484375 7.960938 24.433594 8.171875 24.417969 8.375 C 24.0625 9.132812 23.492188 9.515625 22.625 9.402344 C 22.546875 9.398438 22.464844 9.417969 22.398438 9.460938 C 21.824219 9.878906 21.257812 10.300781 20.675781 10.730469 L 21.15625 11.132812 C 21.351562 11.367188 21.539062 11.605469 21.742188 11.828125 C 21.816406 11.902344 21.914062 11.949219 22.019531 11.964844 C 23.339844 12.070312 23.773438 12.554688 23.75 13.914062 C 23.445312 14.574219 22.984375 15.042969 22.203125 15.039062 C 21.445312 15.03125 20.972656 14.601562 20.691406 13.9375 C 20.691406 13.925781 20.667969 13.921875 20.65625 13.914062 C 20.691406 13.570312 20.726562 13.230469 20.761719 12.890625 C 20.84375 12.726562 21.046875 12.59375 20.84375 12.351562 C 19.734375 11.054688 18.34375 10.351562 16.621094 10.300781 C 16.621094 9.9375 16.621094 9.574219 16.621094 9.21875 Z M 22.101562 14.097656 C 22.464844 14.03125 22.753906 13.75 22.726562 13.488281 C 22.71875 13.210938 22.492188 12.988281 22.210938 12.988281 C 21.945312 12.96875 21.617188 13.269531 21.695312 13.515625 C 21.761719 13.722656 21.960938 13.898438 22.101562 14.09375 Z M 23.449219 7.996094 C 23.386719 7.570312 23.21875 7.386719 22.902344 7.390625 C 22.589844 7.394531 22.417969 7.585938 22.398438 7.890625 C 22.375 8.410156 22.8125 8.25 23.0625 8.269531 C 23.203125 8.28125 23.355469 8.066406 23.453125 7.992188 Z M 23.449219 7.996094 "/>
<path style=" stroke:none;fill-rule:nonzero;fill:rgb(72.941176%,28.235294%,56.078431%);fill-opacity:1;" d="M 15.351562 13.273438 C 13.875 14.132812 12.398438 14.992188 10.921875 15.851562 C 10.167969 16.292969 9.414062 16.734375 8.597656 17.214844 L 8.597656 14.960938 C 9.378906 14.523438 10.171875 14.089844 10.945312 13.640625 C 12.421875 12.78125 13.886719 11.914062 15.359375 11.054688 Z M 15.351562 13.273438 "/>
<path style=" stroke:none;fill-rule:nonzero;fill:rgb(82.745098%,34.509804%,18.039216%);fill-opacity:1;" d="M 16.621094 17.292969 C 16.917969 17.359375 17.207031 17.4375 17.492188 17.535156 C 17.660156 17.605469 17.804688 17.722656 17.910156 17.871094 C 18.691406 19.003906 19.804688 19.277344 21.101562 19.128906 C 21.421875 19.105469 21.742188 19.105469 22.0625 19.128906 C 22.765625 19.15625 23.421875 19.328125 23.933594 19.835938 C 24.796875 20.699219 25.648438 21.570312 26.507812 22.441406 C 26.769531 22.703125 26.820312 22.972656 26.53125 23.253906 C 25.695312 22.082031 24.65625 21.066406 23.453125 20.261719 C 23.066406 20.003906 22.515625 19.933594 22.027344 19.894531 C 21.335938 19.832031 20.632812 19.871094 19.9375 19.878906 C 19.441406 19.894531 18.964844 19.695312 18.628906 19.339844 C 18.277344 18.988281 17.925781 18.621094 17.519531 18.335938 C 17.277344 18.164062 16.933594 18.136719 16.632812 18.042969 Z M 16.621094 17.292969 "/>
<path style=" stroke:none;fill-rule:nonzero;fill:rgb(82.745098%,34.509804%,18.039216%);fill-opacity:1;" d="M 16.621094 28.785156 C 17.210938 28.628906 17.796875 28.410156 18.394531 28.339844 C 18.796875 28.296875 19.308594 28.335938 19.621094 28.550781 C 20.445312 29.125 21.273438 29.144531 22.15625 28.816406 C 22.492188 28.691406 22.773438 28.667969 23.121094 28.875 C 23.8125 29.285156 24.699219 29.011719 25.128906 28.335938 C 25.203125 28.222656 25.273438 28.105469 25.34375 27.988281 C 25.367188 28.988281 25.050781 29.523438 24.277344 29.738281 C 23.832031 29.859375 23.386719 29.847656 22.992188 29.570312 C 22.773438 29.417969 22.582031 29.433594 22.335938 29.519531 C 21.996094 29.636719 21.644531 29.726562 21.289062 29.78125 C 20.785156 29.863281 20.269531 29.734375 19.863281 29.425781 C 19.207031 28.941406 18.519531 28.988281 17.796875 29.195312 C 17.410156 29.308594 17.023438 29.421875 16.636719 29.535156 C 16.632812 29.285156 16.628906 29.035156 16.621094 28.785156 Z M 16.621094 28.785156 "/>
<path style=" stroke:none;fill-rule:nonzero;fill:rgb(61.960784%,21.960784%,43.137255%);fill-opacity:1;" d="M 15.363281 11.046875 C 13.894531 11.910156 12.425781 12.777344 10.953125 13.636719 C 10.175781 14.085938 9.382812 14.515625 8.601562 14.957031 C 8.472656 14.453125 8.691406 14.179688 9.144531 13.917969 C 11.109375 12.800781 13.050781 11.636719 15 10.488281 C 15.121094 10.417969 15.246094 10.363281 15.367188 10.300781 C 15.367188 10.550781 15.363281 10.800781 15.363281 11.046875 Z M 15.363281 11.046875 "/>
<path style=" stroke:none;fill-rule:nonzero;fill:rgb(61.960784%,21.960784%,43.137255%);fill-opacity:1;" d="M 8.597656 19.707031 C 8.46875 19.203125 8.6875 18.925781 9.140625 18.667969 C 11.105469 17.550781 13.046875 16.386719 14.996094 15.238281 C 15.113281 15.167969 15.242188 15.113281 15.363281 15.050781 C 15.363281 15.300781 15.363281 15.550781 15.363281 15.800781 C 13.894531 16.664062 12.425781 17.53125 10.949219 18.386719 C 10.171875 18.832031 9.378906 19.261719 8.597656 19.707031 Z M 8.597656 19.707031 "/>
<path style=" stroke:none;fill-rule:nonzero;fill:rgb(82.745098%,34.901961%,18.431373%);fill-opacity:1;" d="M 16.621094 10.300781 C 18.34375 10.351562 19.734375 11.054688 20.839844 12.355469 C 21.046875 12.597656 20.839844 12.722656 20.757812 12.894531 C 20.324219 12.558594 19.90625 12.199219 19.449219 11.90625 C 18.613281 11.363281 17.636719 11.066406 16.636719 11.046875 Z M 16.621094 10.300781 "/>
<path style=" stroke:none;fill-rule:nonzero;fill:rgb(61.960784%,21.960784%,43.529412%);fill-opacity:1;" d="M 3.535156 26.035156 C 4.0625 27.136719 5 27.523438 6.230469 27.085938 C 7.175781 26.746094 7.964844 26.167969 8.496094 25.289062 C 8.53125 25.425781 8.621094 25.570312 8.601562 25.699219 C 8.515625 26.226562 8.121094 26.566406 7.742188 26.890625 C 7.023438 27.507812 6.222656 27.980469 5.222656 27.953125 C 4.054688 27.917969 3.554688 27.136719 3.460938 26.171875 C 3.457031 26.128906 3.507812 26.078125 3.535156 26.035156 Z M 3.535156 26.035156 "/>
<path style=" stroke:none;fill-rule:nonzero;fill:rgb(82.745098%,34.509804%,18.431373%);fill-opacity:1;" d="M 24.929688 19.292969 L 24.390625 18.882812 C 25.007812 18.550781 25.582031 18.222656 26.171875 17.921875 C 26.339844 17.839844 26.53125 17.761719 26.714844 18.007812 C 27.53125 19.109375 28.832031 18.984375 29.507812 17.757812 C 29.683594 18.078125 29.507812 18.730469 29.128906 19.074219 C 28.402344 19.726562 27.332031 19.625 26.789062 18.875 C 26.605469 18.625 26.414062 18.554688 26.152344 18.679688 C 25.738281 18.882812 25.335938 19.089844 24.929688 19.292969 Z M 24.929688 19.292969 "/>
<path style=" stroke:none;fill-rule:nonzero;fill:rgb(83.137255%,35.294118%,19.215686%);fill-opacity:1;" d="M 21.15625 11.132812 L 20.683594 10.726562 C 21.261719 10.296875 21.832031 9.875 22.40625 9.457031 C 22.46875 9.410156 22.550781 9.390625 22.628906 9.398438 C 23.496094 9.511719 24.066406 9.128906 24.425781 8.371094 C 24.652344 9.097656 24.074219 9.925781 23.410156 10.113281 C 23.167969 10.179688 22.894531 10.132812 22.640625 10.167969 C 22.503906 10.195312 22.371094 10.25 22.257812 10.335938 C 21.882812 10.597656 21.519531 10.867188 21.15625 11.132812 Z M 21.15625 11.132812 "/>
<path style=" stroke:none;fill-rule:nonzero;fill:rgb(83.137255%,35.686275%,19.215686%);fill-opacity:1;" d="M 19.980469 27.511719 L 19.429688 27.320312 C 19.515625 27.21875 19.582031 27.140625 19.640625 27.054688 C 20.210938 26.203125 20.785156 25.359375 21.332031 24.496094 C 21.464844 24.292969 21.550781 24.125 21.828125 24.078125 C 22.4375 23.96875 22.753906 23.511719 23 22.996094 C 23.023438 24.148438 22.792969 24.46875 21.632812 24.886719 C 21.558594 24.917969 21.5 24.972656 21.457031 25.042969 C 20.957031 25.859375 20.46875 26.6875 19.980469 27.511719 Z M 19.980469 27.511719 "/>
<path style=" stroke:none;fill-rule:nonzero;fill:rgb(83.137255%,35.294118%,18.823529%);fill-opacity:1;" d="M 26.535156 24.28125 C 26.992188 25.113281 27.53125 25.417969 28.328125 25.289062 C 28.9375 25.195312 29.28125 24.78125 29.539062 24.273438 C 29.789062 24.996094 29.203125 25.832031 28.3125 26.042969 C 27.363281 26.269531 26.308594 25.324219 26.460938 24.378906 C 26.464844 24.339844 26.507812 24.3125 26.535156 24.28125 Z M 26.535156 24.28125 "/>
<path style=" stroke:none;fill-rule:nonzero;fill:rgb(82.745098%,34.509804%,18.039216%);fill-opacity:1;" d="M 20.65625 13.914062 C 20.667969 13.921875 20.683594 13.929688 20.6875 13.9375 C 20.972656 14.605469 21.445312 15.035156 22.199219 15.039062 C 22.980469 15.046875 23.441406 14.578125 23.746094 13.917969 C 23.796875 14.675781 23.621094 15.320312 22.847656 15.65625 C 21.773438 16.121094 20.652344 15.378906 20.652344 14.203125 C 20.652344 14.109375 20.652344 14.011719 20.65625 13.914062 Z M 20.65625 13.914062 "/>
<path style=" stroke:none;fill-rule:nonzero;fill:rgb(82.745098%,34.901961%,18.431373%);fill-opacity:1;" d="M 27.816406 13.878906 C 27.828125 13.742188 27.851562 13.605469 27.851562 13.46875 C 27.859375 13.105469 27.949219 12.886719 28.398438 12.839844 C 28.964844 12.777344 29.292969 12.339844 29.535156 11.851562 C 29.78125 12.550781 29.148438 13.46875 28.332031 13.632812 C 28.152344 13.667969 27.988281 13.796875 27.816406 13.878906 Z M 27.816406 13.878906 "/>
<path style=" stroke:none;fill-rule:nonzero;fill:rgb(83.137255%,36.078431%,19.607843%);fill-opacity:1;" d="M 19.902344 22.996094 C 20.070312 23.246094 20.277344 23.476562 20.375 23.746094 C 20.433594 23.902344 20.308594 24.121094 20.261719 24.3125 C 19.875 23.945312 19.867188 23.476562 19.902344 22.996094 Z M 19.902344 22.996094 "/>
<path style=" stroke:none;fill-rule:nonzero;fill:rgb(83.921569%,36.862745%,20.392157%);fill-opacity:1;" d="M 26.550781 11.945312 C 26.832031 12.261719 27.097656 12.585938 26.851562 13.042969 C 26.582031 12.722656 26.34375 12.394531 26.550781 11.945312 Z M 26.550781 11.945312 "/>
<path style=" stroke:none;fill-rule:nonzero;fill:rgb(83.529412%,38.039216%,21.176471%);fill-opacity:1;" d="M 27.519531 11.34375 C 27.527344 11.054688 27.777344 10.804688 28.058594 10.835938 C 28.359375 10.867188 28.535156 11.046875 28.546875 11.355469 C 28.542969 11.636719 28.3125 11.863281 28.027344 11.859375 C 27.746094 11.855469 27.515625 11.625 27.519531 11.34375 Z M 27.519531 11.34375 "/>
<path style=" stroke:none;fill-rule:nonzero;fill:rgb(82.745098%,35.294118%,19.215686%);fill-opacity:1;" d="M 27.964844 17.550781 C 27.765625 17.566406 27.523438 17.574219 27.519531 17.222656 C 27.515625 17.082031 27.574219 16.945312 27.675781 16.847656 C 27.777344 16.75 27.914062 16.699219 28.054688 16.707031 C 28.367188 16.730469 28.535156 16.914062 28.546875 17.222656 C 28.558594 17.613281 28.257812 17.542969 27.964844 17.550781 Z M 27.964844 17.550781 "/>
<path style=" stroke:none;fill-rule:nonzero;fill:rgb(82.745098%,35.294118%,18.823529%);fill-opacity:1;" d="M 28.035156 24.117188 C 27.769531 24.144531 27.5 24.152344 27.527344 23.773438 C 27.546875 23.46875 27.722656 23.277344 28.039062 23.28125 C 28.355469 23.285156 28.53125 23.46875 28.546875 23.777344 C 28.566406 24.15625 28.296875 24.144531 28.035156 24.117188 Z M 28.035156 24.117188 "/>
<path style=" stroke:none;fill-rule:nonzero;fill:rgb(83.529412%,38.039216%,21.176471%);fill-opacity:1;" d="M 21.964844 22.613281 C 21.953125 22.890625 21.722656 23.109375 21.4375 23.109375 C 21.15625 23.105469 20.929688 22.886719 20.917969 22.605469 C 20.925781 22.300781 21.113281 22.121094 21.410156 22.082031 C 21.683594 22.046875 21.957031 22.308594 21.964844 22.613281 Z M 21.964844 22.613281 "/>
<path style=" stroke:none;fill-rule:nonzero;fill:rgb(83.137255%,36.862745%,20.392157%);fill-opacity:1;" d="M 23.800781 27.855469 C 23.476562 27.925781 23.273438 27.820312 23.296875 27.488281 C 23.316406 27.183594 23.515625 26.996094 23.816406 27 C 24.121094 27.003906 24.316406 27.199219 24.328125 27.5 C 24.339844 27.875 24.089844 27.925781 23.800781 27.855469 Z M 23.800781 27.855469 "/>
<path style=" stroke:none;fill-rule:nonzero;fill:rgb(83.529412%,37.647059%,20.392157%);fill-opacity:1;" d="M 22.101562 14.09375 C 21.960938 13.898438 21.761719 13.722656 21.695312 13.511719 C 21.621094 13.269531 21.949219 12.964844 22.214844 12.984375 C 22.492188 12.988281 22.722656 13.207031 22.730469 13.484375 C 22.757812 13.746094 22.46875 14.027344 22.101562 14.09375 Z M 22.101562 14.09375 "/>
<path style=" stroke:none;fill-rule:nonzero;fill:rgb(83.137255%,35.686275%,19.215686%);fill-opacity:1;" d="M 23.453125 7.992188 C 23.355469 8.066406 23.199219 8.28125 23.070312 8.269531 C 22.816406 8.25 22.378906 8.40625 22.40625 7.890625 C 22.417969 7.582031 22.589844 7.390625 22.910156 7.390625 C 23.230469 7.390625 23.386719 7.566406 23.453125 7.992188 Z M 23.453125 7.992188 "/>
</g>
</svg>
